<?xml version="1.0" standalone="no"?>
<!DOCTYPE svg PUBLIC "-//W3C//DTD SVG 20010904//EN"
 "http://www.w3.org/TR/2001/REC-SVG-20010904/DTD/svg10.dtd">
<svg version="1.0" xmlns="http://www.w3.org/2000/svg"
 width="40.000000pt" height="26.000000pt" viewBox="0 0 40.000000 26.000000"
 preserveAspectRatio="xMidYMid meet">
<metadata>
Created by potrace 1.15, written by Peter Selinger 2001-2017
</metadata>
<g transform="translate(0.000000,26.000000) scale(0.100000,-0.100000)"
fill="#000000" stroke="none">
<path d="M41 206 c-38 -49 -42 -58 -35 -93 8 -48 21 -73 37 -73 7 0 20 -9 30
-20 22 -25 49 -25 72 0 25 28 104 28 128 0 9 -11 26 -20 37 -20 11 0 28 9 37
20 10 11 23 20 30 20 19 0 23 16 12 49 -14 41 -30 40 -22 -1 l6 -33 -22 23
c-27 27 -56 28 -78 2 -24 -28 -103 -28 -128 0 -24 26 -49 25 -75 -2 -23 -25
-35 -18 -43 29 l-6 32 62 3 62 3 -1 48 0 47 87 0 c48 0 91 -4 94 -10 12 -20
26 -10 15 10 -10 18 -21 20 -134 20 l-124 0 -41 -54z"/>
</g>
</svg>
