<?xml version="1.0" encoding="UTF-8" standalone="no"?>
<svg
   xmlns:dc="http://purl.org/dc/elements/1.1/"
   xmlns:cc="http://creativecommons.org/ns#"
   xmlns:rdf="http://www.w3.org/1999/02/22-rdf-syntax-ns#"
   xmlns:svg="http://www.w3.org/2000/svg"
   xmlns="http://www.w3.org/2000/svg"
   viewBox="0 0 12 20"
   height="20"
   width="12"
   id="svg2"
   version="1.1">
  <metadata
     id="metadata8">
    <rdf:RDF>
      <cc:Work
         rdf:about="">
        <dc:format>image/svg+xml</dc:format>
        <dc:type
           rdf:resource="http://purl.org/dc/dcmitype/StillImage" />
        <dc:title></dc:title>
      </cc:Work>
    </rdf:RDF>
  </metadata>
  <defs
     id="defs6" />
  <path
     id="path3688"
     d="m -32.840197,-4.2389017 c 0,-2.331682 7.738589,-8.3297803 17.196799,-13.3291003 17.1720588,-9.076621 17.1699536,-9.09756 -1.469148,-14.574291 -27.352208,-8.036912 -32.185628,-20.212738 -6.006614,-15.131322 25.6417484,4.977148 40.814449,4.977148 66.456265,0 25.975084,-5.041851 21.44465,7.06478 -5.620183,15.018787 l -18.279443,5.372075 18.480552,10.793778 C 60.764159,-2.7453927 51.13294,5.0783969 27.341254,-7.4971357 11.277252,-15.988071 9.0439756,-16.04267 -5.599618,-8.3025407 c -17.252294,9.11900697 -27.240579,10.609023 -27.240579,4.063639 z m 13.498324,-53.8143133 c -26.050426,-15.215074 -7.196446,-42.286045 29.450808,-42.286045 36.647254,0 55.50131,27.070971 29.450807,42.286045 -17.239974,10.069234 -41.6616411,10.069234 -58.901615,0 z M 27.288606,-75.25432 c 0,-6.689315 -5.726532,-10.033978 -17.179671,-10.033978 -11.4530643,0 -17.1796719,3.344663 -17.1796719,10.033978 0,6.68932 5.7266076,10.033982 17.1796719,10.033982 11.453139,0 17.179671,-3.344662 17.179671,-10.033982 z"
     style="fill:#7a7a7a;stroke-width:6.56468201" />
</svg>
