<?xml version="1.0" encoding="UTF-8" standalone="no"?>
<svg
   xmlns:dc="http://purl.org/dc/elements/1.1/"
   xmlns:cc="http://creativecommons.org/ns#"
   xmlns:rdf="http://www.w3.org/1999/02/22-rdf-syntax-ns#"
   xmlns:svg="http://www.w3.org/2000/svg"
   xmlns="http://www.w3.org/2000/svg"
   viewBox="0 0 12 20"
   height="20"
   width="12"
   id="svg2"
   version="1.1">
  <metadata
     id="metadata8">
    <rdf:RDF>
      <cc:Work
         rdf:about="">
        <dc:format>image/svg+xml</dc:format>
        <dc:type
           rdf:resource="http://purl.org/dc/dcmitype/StillImage" />
        <dc:title></dc:title>
      </cc:Work>
    </rdf:RDF>
  </metadata>
  <defs
     id="defs6" />
  <path
     id="path3688"
     d="m -39.970171,-5.95695 c 0,-1.1673197 3.907339,-4.170173 8.682942,-6.673004 8.67045,-4.544067 8.669388,-4.55455 -0.741797,-7.296389 -13.810572,-4.023553 -16.251044,-10.119189 -3.032836,-7.575258 12.946934,2.491731 20.607875,2.491731 33.5548433,0 13.1152407,-2.524123 10.8277509,3.536871 -2.8377213,7.518919 l -9.229587,2.689445 9.3311302,5.403734 c 11.5353797,6.6802547 6.6724214,10.5971116 -5.3403859,4.3013697 -8.1109743,-4.2508537 -9.2385913,-4.2781877 -16.6323793,-0.4032133 -8.710963,4.5652869 -13.754209,5.3112399 -13.754209,2.0343966 z m 6.815522,-26.941287 c -13.153282,-7.617187 -3.633602,-21.16984 14.87019,-21.16984 18.50379117,0 28.0235092,13.552653 14.8701886,21.16984 -8.7047416,5.041003 -21.0356366,5.041003 -29.7403786,0 z m 23.5444835,-8.611462 c 0,-3.3489 -2.8914185,-5.023353 -8.6742935,-5.023353 -5.782838,0 -8.674294,1.674453 -8.674294,5.023353 0,3.348902 2.891456,5.023354 8.674294,5.023354 5.782875,0 8.6742935,-1.674452 8.6742935,-5.023354 z"
     style="fill:#7a7a7a;stroke-width:3.30052924" />
</svg>
